# xmcd
#
# Track frame offsets:
#	150
#	22701
#	42976
#	57767
#	74940
#	93851
#	113559
#	132961
#	146904
#	173350
#	181490
#	192517
#	221240
#
# Disc length: 3155 seconds
#
# Revision: 0
# Processed by: cddbd v1.5.2PL0 Copyright (c) Steve Scherf et al.
# Submitted via: dBpowerAMP V4.0
#
DISCID=bd0c510d
DTITLE=King Johnson - Hot Fish Laundry Mat
DYEAR=2002
DGENRE=Blues
TTITLE0=Personal Thing
TTITLE1=Spirit
TTITLE2=Atlas
TTITLE3=Fine Line
TTITLE4=Mile After Mile
TTITLE5=Time Stands Still
TTITLE6=Adultcontemporaryrootsrockbluesjazzfunk
TTITLE7=One More Day
TTITLE8=Flow
TTITLE9=Goodbye
TTITLE10=When
TTITLE11=Stop And Start All Over Again
TTITLE12=Ornot
EXTD=
EXTT0=
EXTT1=
EXTT2=
EXTT3=
EXTT4=
EXTT5=
EXTT6=
EXTT7=
EXTT8=
EXTT9=
EXTT10=
EXTT11=
EXTT12=
PLAYORDER=
